<svg width="53" height="54" viewBox="0 0 53 54" fill="none" xmlns="http://www.w3.org/2000/svg">
<rect y="0.0488892" width="52.5505" height="53" rx="16" fill="white"/>
<path d="M43.8929 21.6333V37.2454C43.8929 38.1105 43.5849 38.8512 42.9688 39.4673C42.3527 40.0834 41.6121 40.3914 40.7469 40.3914H11.8035C10.9383 40.3914 10.1977 40.0834 9.58161 39.4673C8.96552 38.8512 8.65747 38.1105 8.65747 37.2454V21.6333C9.23424 22.2756 9.89622 22.8458 10.6434 23.3439C15.3887 26.5686 18.6461 28.8298 20.4157 30.1275C21.1629 30.6781 21.7692 31.1074 22.2345 31.4154C22.6999 31.7235 23.3193 32.0381 24.0927 32.3592C24.866 32.6804 25.587 32.8409 26.2555 32.8409H26.2949C26.9634 32.8409 27.6843 32.6804 28.4577 32.3592C29.2311 32.0381 29.8505 31.7235 30.3159 31.4154C30.7812 31.1074 31.3875 30.6781 32.1347 30.1275C34.3631 28.5152 37.6271 26.254 41.9267 23.3439C42.6738 22.8327 43.3292 22.2625 43.8929 21.6333ZM43.8929 15.8524C43.8929 16.888 43.5718 17.8777 42.9295 18.8215C42.2871 19.7653 41.4875 20.5715 40.5306 21.24C35.6018 24.6613 32.5345 26.7914 31.3285 27.6304C31.1973 27.7222 30.9188 27.9221 30.4928 28.2301C30.0668 28.5381 29.7129 28.7872 29.4311 28.9772C29.1492 29.1673 28.8084 29.3803 28.4086 29.6163C28.0088 29.8522 27.6319 30.0292 27.278 30.1472C26.9241 30.2652 26.5963 30.3242 26.2949 30.3242H26.2555C25.954 30.3242 25.6263 30.2652 25.2724 30.1472C24.9185 30.0291 24.5416 29.8522 24.1418 29.6163C23.742 29.3803 23.4012 29.1673 23.1193 28.9772C22.8375 28.7872 22.4836 28.5381 22.0576 28.2301C21.6315 27.922 21.353 27.7221 21.2219 27.6304C20.029 26.7914 18.3118 25.5953 16.0703 24.0419C13.8287 22.4886 12.4851 21.5546 12.0395 21.24C11.2267 20.6895 10.4599 19.9324 9.73892 18.969C9.01795 18.0055 8.65747 17.1108 8.65747 16.285C8.65747 15.2626 8.92947 14.4105 9.47347 13.7289C10.0175 13.0472 10.7941 12.7064 11.8035 12.7064H40.7469C41.5989 12.7064 42.3363 13.0145 42.9589 13.6306C43.5816 14.2466 43.8929 14.9873 43.8929 15.8524Z" fill="black"/>
</svg>
