<svg width="54" height="54" viewBox="0 0 54 54" fill="none" xmlns="http://www.w3.org/2000/svg">
<rect x="0.550537" width="53.3925" height="53.0489" rx="16" fill="white"/>
<path fill-rule="evenodd" clip-rule="evenodd" d="M27.2468 8C16.9171 8 8.55054 16.4994 8.55054 26.993C8.55054 35.3974 13.9023 42.496 21.3341 45.0126C22.2689 45.1788 22.6195 44.609 22.6195 44.1104C22.6195 43.6594 22.5961 42.1637 22.5961 40.573C17.8987 41.4514 16.6834 39.4097 16.3095 38.3413C16.0991 37.7953 15.1877 36.1096 14.3931 35.6586C13.7387 35.3024 12.8039 34.424 14.3697 34.4003C15.8421 34.3765 16.8937 35.7773 17.2443 36.347C18.9269 39.2197 21.6145 38.4125 22.6896 37.914C22.8532 36.6794 23.3439 35.8485 23.8814 35.3737C19.7215 34.8988 15.3747 33.2607 15.3747 25.9959C15.3747 23.9304 16.0991 22.221 17.291 20.8915C17.1041 20.4167 16.4497 18.4699 17.478 15.8584C17.478 15.8584 19.0438 15.3598 22.6195 17.8051C24.1152 17.3778 25.7043 17.1641 27.2935 17.1641C28.8827 17.1641 30.4719 17.3778 31.9676 17.8051C35.5432 15.336 37.109 15.8584 37.109 15.8584C38.1373 18.4699 37.483 20.4167 37.296 20.8915C38.4879 22.221 39.2124 23.9066 39.2124 25.9959C39.2124 33.2844 34.8421 34.8988 30.6822 35.3737C31.3599 35.9672 31.9442 37.1068 31.9442 38.8874C31.9442 41.4277 31.9208 43.4694 31.9208 44.1104C31.9208 44.609 32.2714 45.2025 33.2062 45.0126C40.5912 42.496 45.943 35.3737 45.943 26.993C45.943 16.4994 37.5764 8 27.2468 8Z" fill="black"/>
</svg>
