<svg width="54" height="54" viewBox="0 0 54 54" fill="none" xmlns="http://www.w3.org/2000/svg">
<rect x="0.942871" y="0.0488892" width="53" height="53" rx="16" fill="white"/>
<path d="M19.7134 15.041C19.7134 17.1277 18.0218 18.8193 15.9351 18.8193C13.8483 18.8193 12.1567 17.1277 12.1567 15.041C12.1567 12.9542 13.8483 11.2626 15.9351 11.2626C18.0218 11.2626 19.7134 12.9542 19.7134 15.041Z" fill="black" stroke="black" stroke-width="0.103516"/>
<path d="M26.4937 20.8378V41.3339V20.8378ZM15.9351 20.8378V41.3339V20.8378Z" fill="black"/>
<path d="M26.4937 20.8378V41.3339M15.9351 20.8378V41.3339" stroke="black" stroke-width="6.83203"/>
<mask id="path-5-inside-1_94_1008" fill="white">
<path d="M29.8062 29.9472C29.8062 27.8769 31.1519 25.8066 33.5327 25.8066C36.0171 25.8066 36.9487 27.6699 36.9487 30.4648V41.3339H43.7808V29.6367C43.7808 23.3222 40.4683 20.4238 35.9136 20.4238C32.394 20.4238 30.6343 22.3906 29.8062 23.7363"/>
</mask>
<path d="M29.8062 29.9472C29.8062 27.8769 31.1519 25.8066 33.5327 25.8066C36.0171 25.8066 36.9487 27.6699 36.9487 30.4648V41.3339H43.7808V29.6367C43.7808 23.3222 40.4683 20.4238 35.9136 20.4238C32.394 20.4238 30.6343 22.3906 29.8062 23.7363" fill="black"/>
<path d="M36.9487 41.3339H36.8452V41.4374H36.9487V41.3339ZM43.7808 41.3339V41.4374H43.8843V41.3339H43.7808ZM29.9097 29.9472C29.9097 27.9135 31.2276 25.9101 33.5327 25.9101V25.7031C31.0761 25.7031 29.7026 27.8403 29.7026 29.9472H29.9097ZM33.5327 25.9101C34.7447 25.9101 35.5643 26.3621 36.0862 27.145C36.6131 27.9353 36.8452 29.0756 36.8452 30.4648H37.0522C37.0522 29.0591 36.8186 27.8703 36.2585 27.0302C35.6935 26.1827 34.8051 25.7031 33.5327 25.7031V25.9101ZM36.8452 30.4648V41.3339H37.0522V30.4648H36.8452ZM36.9487 41.4374H43.7808V41.2304H36.9487V41.4374ZM43.8843 41.3339V29.6367H43.6772V41.3339H43.8843ZM43.8843 29.6367C43.8843 26.4621 43.0515 24.1307 41.6312 22.5921C40.2102 21.0526 38.2133 20.3203 35.9136 20.3203V20.5273C38.1685 20.5273 40.1053 21.2442 41.4791 22.7325C42.8538 24.2218 43.6772 26.4968 43.6772 29.6367H43.8843ZM35.9136 20.3203C32.3462 20.3203 30.5577 22.3175 29.718 23.682L29.8943 23.7905C30.7108 22.4637 32.4419 20.5273 35.9136 20.5273V20.3203Z" fill="black" mask="url(#path-5-inside-1_94_1008)"/>
</svg>
